<?xml version="1.0" encoding="UTF-8" standalone="no" ?>
<!DOCTYPE svg PUBLIC "-//W3C//DTD SVG 1.1//EN" "http://www.w3.org/Graphics/SVG/1.1/DTD/svg11.dtd">
<svg xmlns="http://www.w3.org/2000/svg" xmlns:xlink="http://www.w3.org/1999/xlink" version="1.1" width="1280" height="1024" viewBox="0 0 1280 1024" xml:space="preserve">
<desc>Created with Fabric.js 4.4.0</desc>
<defs>
</defs>
<g transform="matrix(1 0 0 1 640 512)" id="background-logo"  >
<rect style="stroke: none; stroke-width: 0; stroke-dasharray: none; stroke-linecap: butt; stroke-dashoffset: 0; stroke-linejoin: miter; stroke-miterlimit: 4; fill: rgb(255,255,255); fill-opacity: 0; fill-rule: nonzero; opacity: 1;"  paint-order="stroke"  x="-640" y="-512" rx="0" ry="0" width="1280" height="1024" />
</g>
<g transform="matrix(1.9211538461538462 0 0 1.9211538461538462 640 411.8895226973429)" id="logo-logo"  >
<g style=""  paint-order="stroke"   >
		<g transform="matrix(2.6831671672241546 0 0 2.6831671672241546 0 0)"  >
<path style="stroke: none; stroke-width: 1; stroke-dasharray: none; stroke-linecap: butt; stroke-dashoffset: 0; stroke-linejoin: miter; stroke-miterlimit: 4; fill: rgb(59,0,54); fill-rule: nonzero; opacity: 1;"  paint-order="stroke"  transform=" translate(-50.00000000000001, -50.12609853749999)" d="M 98.9823608 37.4025879 L 56.1000366 23.5421753 C 55.806213400000004 23.4472046 55.489929200000006 23.4472046 55.196044900000004 23.5421753 L 1.0176392 40.6727905 C -0.3392333999999999 41.1113891 -0.3392333999999999 43.0310669 1.0176392 43.4696655 L 20.679565500000002 51.1569824 C 19.105285700000003 52.68573 17.299804800000004 55.5596313 17.299804800000004 60.73535149999999 C 17.299804800000004 63.360412499999995 17.870544500000005 65.92315669999999 18.555847300000003 68.0673827 L 17.828308200000002 68.37054429999999 C 16.9700929 68.72808819999999 16.5642701 69.71368389999999 16.9218751 70.57183819999999 L 18.5018922 74.36383039999998 C 18.7841188 75.04107649999999 19.4575807 75.42950419999998 20.1506959 75.39044169999998 L 20.5634767 76.38183569999998 C 20.6816408 76.66406229999998 20.988281399999998 76.78124979999998 21.363281399999998 76.78124979999998 C 21.6806642 76.78124979999998 22.0478517 76.69628889999998 22.3876955 76.55468729999998 L 23.5947267 76.05175759999999 C 23.9638673 75.89843729999998 24.2861329 75.68652319999998 24.503906399999998 75.4560545 C 24.862304799999997 75.07519509999999 24.815429799999997 74.7773436 24.7558595 74.6337889 L 24.3431398 73.6436156 C 24.85907 73.179016 25.057556299999998 72.4271849 24.7753297 71.7498168 L 23.1953126 67.95788560000001 C 23.1007691 67.73101790000001 22.9603883 67.53832990000001 22.792053300000003 67.38043200000001 C 22.761718800000004 67.35198960000001 22.727783300000002 67.32867420000001 22.695617800000004 67.30267320000002 C 22.326172000000003 67.00439440000001 21.844055300000004 66.86755360000002 21.363525500000005 66.94842520000002 C 21.239196900000007 66.96936030000002 21.115295500000006 67.00085440000002 20.993957600000005 67.05145250000001 L 20.958435100000006 67.06628400000001 L 20.490417500000007 67.26129130000001 C 19.881530800000007 65.31896950000001 19.38378910000001 63.03503400000001 19.38378910000001 60.73535140000001 C 19.38378910000001 55.24505600000001 21.628418000000007 52.898498400000015 22.87640380000001 52.01593000000001 L 32.42382810000001 55.74871810000001 L 40.593566900000006 58.94287090000001 C 40.593566900000006 58.94287090000001 45.37182620000001 60.58599830000001 49.01806640000001 59.46978740000001 C 54.69458010000001 57.731994400000005 71.48333740000001 53.19567850000001 71.48333740000001 53.19567850000001 C 71.48333740000001 53.19567850000001 51.585632300000015 61.278869400000005 45.26123050000001 61.27862530000001 C 42.60443120000001 61.27850320000001 32.42498780000001 57.205688300000006 32.42388920000001 57.20532210000001 L 32.42382820000001 57.20532210000001 L 32.42382820000001 62.94000230000001 C 32.42382820000001 64.65801990000001 33.69549570000001 66.09503160000001 35.39605720000001 66.33972150000001 C 41.426147500000006 67.20751940000001 46.76519780000001 69.71228010000002 51.56140140000001 72.58258040000001 C 54.07971190000001 74.08972150000001 57.21636970000001 74.08972150000001 59.73474120000001 72.58258040000001 C 64.53088380000001 69.71228010000002 69.86993410000001 67.20751940000001 75.9000244 66.33984360000001 C 77.60058590000001 66.09509260000002 78.8722534 64.6581419 78.8722534 62.940063300000006 L 78.8722534 49.2211304 L 59.87249750000001 53.7297974 L 59.872253400000005 53.729858400000005 L 78.8722534 47.156677200000004 L 98.98236080000001 40.199462800000006 C 100.3392334 39.7608643 100.3392334 37.8411865 98.9823608 37.4025879 z M 24.2910156 74.8271484 C 24.302734400000002 74.8544922 24.2792968 74.9589843 24.136718700000003 75.1103515 C 23.969726500000004 75.2880859 23.701171800000004 75.461914 23.4013671 75.586914 L 22.194335900000002 76.08984369999999 C 21.516601500000004 76.37207029999999 21.063476500000004 76.27148429999998 21.0283203 76.18749989999999 L 20.6524658 75.2856444 C 20.6692505 75.2792357 20.686523400000002 75.2772215 20.703247 75.2702635 L 23.8689574 73.9511717 C 23.8854979 73.94427470000001 23.8990477 73.9335325 23.915222 73.9262083 L 24.2910156 74.8271484 z M 32.4238281 51.9769287 L 7.2372437 42.152771 L 32.423828199999996 51.0767212 L 43.8594971 55.12854 C 44.8316651 55.4125366 45.8588867 55.4783325 46.8617554 55.320739700000004 L 51.5856324 54.9489135 L 47.1453858 56.385681100000006 C 45.8593751 56.699401800000004 44.5046998 56.63555900000001 43.256897 56.202453600000005 L 32.4238281 51.9769287 z M 34.1220703 46.6448364 C 33.5957641 46.793334900000005 32.860046399999995 47.0004883 32.3518677 47.141845700000005 C 31.9718628 47.247558600000005 31.5752564 47.237670900000005 31.1999512 47.116333000000004 C 31.1999512 47.116333000000004 28.2536621 46.16406250000001 27.560302800000002 45.9399414 C 26.8668824 45.715820300000004 27.066955600000004 45.5111694 27.349304300000004 45.3495483 C 27.631714000000002 45.1878662 28.849304300000004 44.833190900000005 28.849304300000004 44.833190900000005 C 29.278686600000004 44.685363800000005 29.745422500000004 44.68719480000001 30.173645100000005 44.8383789 C 30.173645100000005 44.8383789 33.434875600000005 45.990051300000005 33.84710700000001 46.135620100000004 C 34.25933840000001 46.281188900000004 34.5003052 46.5380859 34.1220703 46.6448364 z M 88.4929199 39.3525391 L 57.0384521 49.519165 C 56.134521400000004 49.8113403 55.16156 49.8113403 54.2576293 49.519165 L 22.803283599999997 39.352539 C 22.268188399999996 39.1795654 22.268188399999996 38.4225463 22.803283599999997 38.2496337 L 55.4697876 27.69104 C 55.5856934 27.6536254 55.7104492 27.6536254 55.826293899999996 27.69104 L 88.4929199 38.2496338 C 89.0280151 38.4225464 89.0280151 39.1795654 88.4929199 39.3525391 z" stroke-linecap="round" />
</g>
		<g transform="matrix(2.6831671672241546 0 0 2.6831671672241546 14.823015528568305 -30.47348420923771)"  >
<path style="stroke: none; stroke-width: 1; stroke-dasharray: none; stroke-linecap: butt; stroke-dashoffset: 0; stroke-linejoin: miter; stroke-miterlimit: 4; fill: rgb(132,207,255); fill-rule: nonzero; opacity: 1;"  paint-order="stroke"  transform=" translate(-55.52444726874894, -38.7688172687508)" d="M 27.3188572 39.1170959 L 54.333755499999995 47.848785400000004 C 55.18819429999999 48.12495800000001 56.107913999999994 48.12495800000001 56.9623528 47.848789200000006 L 83.6539765 39.221614800000005 C 84.0620347 39.089721600000004 84.0620347 38.512405400000006 83.6539765 38.380512200000005 L 56.5740739 29.627656900000005 C 55.9720613 29.433073000000004 55.3240472 29.433073000000004 54.7220346 29.627658800000006 L 27.3188554 38.48503110000001 C 27.0122128 38.5841484 27.0122147 39.0179825 27.3188572 39.1170959 z" stroke-linecap="round" />
</g>
		<g transform="matrix(2.6831671672241546 0 0 2.6831671672241546 13.683797921992607 -30.68234252847941)"  >
<path style="stroke: none; stroke-width: 1; stroke-dasharray: none; stroke-linecap: butt; stroke-dashoffset: 0; stroke-linejoin: miter; stroke-miterlimit: 4; fill: rgb(132,207,255); fill-rule: nonzero; opacity: 1;"  paint-order="stroke"  transform=" translate(-55.099867831249995, -38.69097705)" d="M 55.6480522 31.0233383 L 53.6471176 31.6700706 L 43.8594971 42.7683868 L 45.4847946 43.2936477 L 56.4581947 31.285181 L 55.6480522 31.0233383 z M 31.5850525 38.8010674 L 39.4226303 41.3342515 L 45.9931259 34.1439973 L 31.5850525 38.8010674 z M 78.2775116 38.3377228 L 59.9552765 32.415535 C 59.8124428 32.3692704 59.6557312 32.4122887 59.556407899999996 32.5249024 L 49.4251404 44.0128288 C 49.2454949 44.2165947 49.3335953 44.5376968 49.5919914 44.6211738 L 54.3199386 46.1493148 C 55.183330500000004 46.4283828 56.1127777 46.4283828 56.9761695 46.1493148 L 78.2775115 39.2644118 C 78.7270737 39.1191177 78.7270737 38.483017 78.2775116 38.3377228 z" stroke-linecap="round" />
</g>
</g>
</g>
<g transform="matrix(1.9211538461538462 0 0 1.9211538461538462 637.3599123006013 647.8480232546053)" id="text-logo-path-group"  >
<g style=""  paint-order="stroke"   >
		<g transform="matrix(1 0 0 1 0 0)" id="text-logo-path-0"  >
<path style="stroke: none; stroke-width: 0; stroke-dasharray: none; stroke-linecap: butt; stroke-dashoffset: 0; stroke-linejoin: miter; stroke-miterlimit: 4; fill: rgb(59,0,54); fill-rule: nonzero; opacity: 1;"  paint-order="stroke"  transform=" translate(-55.550000000000004, 22.685000000000002)" d="M 48.79 -22.71 L 46.73 -18.7 Q 43.72 -19.35 40.71 -20.68 Q 37.7 -22.01 35.08 -23.9 Q 32.45 -25.78 30.33 -28.2 Q 28.2 -30.62 26.9 -33.45 L 26.9 -33.45 Q 25.61 -30.62 23.51 -28.2 Q 21.42 -25.78 18.76 -23.9 Q 16.11 -22.01 13.13 -20.68 Q 10.15 -19.35 7.08 -18.7 L 7.08 -18.7 L 5.07 -22.71 Q 8.55 -23.36 12.01 -25.05 Q 15.46 -26.73 18.2 -29.15 Q 20.95 -31.57 22.66 -34.6 Q 24.37 -37.64 24.37 -40.95 L 24.37 -40.95 L 24.37 -45.02 L 29.44 -45.02 L 29.44 -40.95 Q 29.44 -37.64 31.15 -34.6 Q 32.86 -31.57 35.64 -29.15 Q 38.41 -26.73 41.86 -25.05 Q 45.31 -23.36 48.79 -22.71 L 48.79 -22.71 Z M 29.32 -6.49 L 51.15 -6.49 L 51.15 -2.54 L 3.13 -2.54 L 3.13 -6.49 L 24.49 -6.49 L 24.49 -19.35 L 29.32 -19.35 L 29.32 -6.49 Z M 91.04 -17.29 L 101.78 -17.29 L 101.78 -48.56 L 106.61 -48.56 L 106.61 -8.26 L 101.78 -8.26 L 101.78 -13.69 L 91.04 -13.69 L 91.04 -17.29 Z M 80.24 -27.97 L 80.24 -27.97 Q 77.35 -27.97 74.96 -28.62 Q 72.57 -29.26 70.83 -30.47 Q 69.09 -31.68 68.14 -33.39 Q 67.2 -35.11 67.2 -37.23 L 67.2 -37.23 Q 67.2 -39.29 68.14 -41.01 Q 69.09 -42.72 70.83 -43.93 Q 72.57 -45.14 74.96 -45.78 Q 77.35 -46.43 80.24 -46.43 L 80.24 -46.43 Q 83.13 -46.43 85.52 -45.78 Q 87.91 -45.14 89.65 -43.93 Q 91.39 -42.72 92.34 -41.01 Q 93.28 -39.29 93.28 -37.23 L 93.28 -37.23 Q 93.28 -35.11 92.34 -33.39 Q 91.39 -31.68 89.65 -30.47 Q 87.91 -29.26 85.52 -28.62 Q 83.13 -27.97 80.24 -27.97 Z M 80.24 -42.83 L 80.24 -42.83 Q 76.46 -42.83 74.13 -41.3 Q 71.8 -39.77 71.8 -37.23 L 71.8 -37.23 Q 71.8 -34.63 74.13 -33.1 Q 76.46 -31.57 80.24 -31.57 L 80.24 -31.57 Q 84.02 -31.57 86.35 -33.1 Q 88.68 -34.63 88.68 -37.23 L 88.68 -37.23 Q 88.68 -39.77 86.35 -41.3 Q 84.02 -42.83 80.24 -42.83 Z M 78.35 -10.15 L 78.35 -20.36 Q 74.4 -20.18 70.68 -20.12 Q 66.97 -20.06 63.66 -20.06 L 63.66 -20.06 L 63.01 -24.07 Q 66.67 -24.07 70.89 -24.1 Q 75.11 -24.13 79.53 -24.31 Q 83.96 -24.49 88.44 -24.78 Q 92.93 -25.08 97.11 -25.61 L 97.11 -25.61 L 97.53 -22.13 Q 93.99 -21.59 90.39 -21.21 Q 86.79 -20.83 83.19 -20.59 L 83.19 -20.59 L 83.19 -10.15 L 78.35 -10.15 Z M 75.4 -0.77 L 107.97 -0.77 L 107.97 3.19 L 70.56 3.19 L 70.56 -12.21 L 75.4 -12.21 L 75.4 -0.77 Z" stroke-linecap="round" />
</g>
</g>
</g>
<g transform="matrix(1.9211538461538462 0 0 1.9211538461538462 638.6167692307691 795.1533409881217)" id="tagline-d84039a0-3c12-4cec-a031-f9fc9ae159dd-logo-path-group"  >
<g style=""  paint-order="stroke"   >
		<g transform="matrix(1 0 0 1 0 0)" id="tagline-d84039a0-3c12-4cec-a031-f9fc9ae159dd-logo-path-0"  >
<path style="stroke: none; stroke-width: 0; stroke-dasharray: none; stroke-linecap: butt; stroke-dashoffset: 0; stroke-linejoin: miter; stroke-miterlimit: 4; fill: rgb(59,0,54); fill-rule: nonzero; opacity: 1;"  paint-order="stroke"  transform=" translate(-186.16, 11.97)" d="M 28.38 -14.88 L 28.38 -12.7 L 23.78 -12.7 L 23.78 2.37 L 21.15 2.37 L 21.15 -26.34 L 23.78 -26.34 L 23.78 -14.88 L 28.38 -14.88 Z M 5.44 -23.55 L 5.44 -7.1 Q 8.54 -7.1 11.76 -7.39 Q 14.98 -7.68 18.46 -8.38 L 18.46 -8.38 L 18.78 -6.21 Q 15.1 -5.47 11.76 -5.18 Q 8.42 -4.9 5.12 -4.9 L 5.12 -4.9 L 2.85 -4.9 L 2.85 -23.55 L 5.44 -23.55 Z M 64.7 -26.34 L 67.33 -26.34 L 67.33 2.43 L 64.7 2.43 L 64.7 -26.34 Z M 53.25 -24.22 L 53.25 -24.22 Q 54.94 -24.22 56.35 -23.74 Q 57.76 -23.26 58.77 -22.37 Q 59.78 -21.47 60.35 -20.22 Q 60.93 -18.98 60.93 -17.47 L 60.93 -17.47 Q 60.93 -15.97 60.35 -14.72 Q 59.78 -13.47 58.77 -12.59 Q 57.76 -11.71 56.35 -11.22 Q 54.94 -10.72 53.25 -10.72 L 53.25 -10.72 Q 51.58 -10.72 50.18 -11.22 Q 48.77 -11.71 47.74 -12.59 Q 46.72 -13.47 46.14 -14.72 Q 45.57 -15.97 45.57 -17.47 L 45.57 -17.47 Q 45.57 -18.98 46.14 -20.22 Q 46.72 -21.47 47.74 -22.37 Q 48.77 -23.26 50.18 -23.74 Q 51.58 -24.22 53.25 -24.22 Z M 53.25 -21.98 L 53.25 -21.98 Q 52.13 -21.98 51.18 -21.66 Q 50.24 -21.34 49.57 -20.74 Q 48.9 -20.13 48.51 -19.31 Q 48.13 -18.5 48.13 -17.47 L 48.13 -17.47 Q 48.13 -16.48 48.51 -15.65 Q 48.9 -14.82 49.57 -14.22 Q 50.24 -13.63 51.18 -13.3 Q 52.13 -12.96 53.25 -12.96 L 53.25 -12.96 Q 54.37 -12.96 55.31 -13.3 Q 56.26 -13.63 56.93 -14.22 Q 57.6 -14.82 57.98 -15.65 Q 58.37 -16.48 58.37 -17.47 L 58.37 -17.47 Q 58.37 -18.5 57.98 -19.31 Q 57.6 -20.13 56.93 -20.74 Q 56.26 -21.34 55.31 -21.66 Q 54.37 -21.98 53.25 -21.98 Z M 44.45 -3.87 L 44.13 -6.08 Q 46.08 -6.08 48.37 -6.1 Q 50.66 -6.11 53.07 -6.21 Q 55.49 -6.3 57.98 -6.51 Q 60.48 -6.72 62.82 -7.07 L 62.82 -7.07 L 63.04 -5.12 Q 60.61 -4.67 58.13 -4.42 Q 55.65 -4.16 53.26 -4.05 Q 50.88 -3.94 48.64 -3.9 Q 46.4 -3.87 44.45 -3.87 L 44.45 -3.87 Z M 131.33 -26.34 L 133.95 -26.34 L 133.95 2.43 L 131.33 2.43 L 131.33 -26.34 Z M 114.91 -21.41 L 114.91 -6.94 Q 116.99 -6.94 118.75 -6.98 Q 120.51 -7.01 122.1 -7.12 Q 123.68 -7.23 125.2 -7.42 Q 126.72 -7.62 128.29 -7.9 L 128.29 -7.9 L 128.58 -5.7 Q 126.91 -5.41 125.34 -5.22 Q 123.78 -5.02 122.11 -4.91 Q 120.45 -4.8 118.62 -4.75 Q 116.8 -4.7 114.62 -4.7 L 114.62 -4.7 L 112.32 -4.7 L 112.32 -23.62 L 125.89 -23.62 L 125.89 -21.41 L 114.91 -21.41 Z M 173.57 -26.3 L 176.19 -26.3 L 176.19 2.37 L 173.57 2.37 L 173.57 -26.3 Z M 162.94 -21.22 L 162.94 -17.57 Q 162.94 -15.74 163.55 -13.95 Q 164.16 -12.16 165.2 -10.61 Q 166.24 -9.06 167.65 -7.84 Q 169.06 -6.62 170.62 -5.95 L 170.62 -5.95 L 169.15 -3.84 Q 167.9 -4.42 166.77 -5.31 Q 165.63 -6.21 164.66 -7.33 Q 163.68 -8.45 162.91 -9.79 Q 162.14 -11.14 161.63 -12.61 L 161.63 -12.61 Q 161.15 -11.04 160.38 -9.6 Q 159.62 -8.16 158.66 -6.93 Q 157.7 -5.7 156.58 -4.74 Q 155.46 -3.78 154.24 -3.14 L 154.24 -3.14 L 152.7 -5.25 Q 154.24 -5.98 155.63 -7.3 Q 157.02 -8.61 158.06 -10.27 Q 159.1 -11.94 159.71 -13.82 Q 160.32 -15.71 160.32 -17.57 L 160.32 -17.57 L 160.32 -21.22 L 153.66 -21.22 L 153.66 -23.39 L 169.7 -23.39 L 169.7 -21.22 L 162.94 -21.22 Z M 215.94 -10.85 L 215.94 -17.63 L 210.56 -17.63 L 210.56 -19.74 L 215.94 -19.74 L 215.94 -26.34 L 218.56 -26.34 L 218.56 -10.85 L 215.94 -10.85 Z M 210.85 -14.78 L 211.04 -12.7 Q 209.6 -12.48 208.24 -12.32 Q 206.88 -12.16 205.42 -12.1 Q 203.97 -12.03 202.29 -12 Q 200.61 -11.97 198.53 -11.97 L 198.53 -11.97 L 196.38 -11.97 L 196.38 -24.54 L 209.31 -24.54 L 209.31 -22.46 L 199.01 -22.46 L 199.01 -19.39 L 208.58 -19.39 L 208.58 -17.41 L 199.01 -17.41 L 199.01 -14.08 Q 200.96 -14.08 202.54 -14.11 Q 204.13 -14.14 205.52 -14.21 Q 206.91 -14.27 208.19 -14.42 Q 209.47 -14.56 210.85 -14.78 L 210.85 -14.78 Z M 202.72 0 L 219.65 0 L 219.65 2.05 L 200.13 2.05 L 200.13 -4.83 L 215.97 -4.83 L 215.97 -7.49 L 200.06 -7.49 L 200.06 -9.54 L 218.56 -9.54 L 218.56 -2.88 L 202.72 -2.88 L 202.72 0 Z M 282.46 -4.86 L 282.46 -17.41 L 276.19 -17.41 L 276.19 -19.58 L 282.46 -19.58 L 282.46 -26.3 L 285.12 -26.3 L 285.12 -4.86 L 282.46 -4.86 Z M 278.24 -11.65 L 276.86 -9.63 Q 274.46 -10.56 272.7 -12.34 Q 270.94 -14.11 270.02 -16.45 L 270.02 -16.45 Q 269.09 -13.86 267.25 -11.92 Q 265.41 -9.98 262.88 -8.96 L 262.88 -8.96 L 261.5 -11.04 Q 263.1 -11.62 264.43 -12.64 Q 265.76 -13.66 266.7 -14.99 Q 267.65 -16.32 268.16 -17.87 Q 268.67 -19.42 268.67 -21.06 L 268.67 -21.06 L 268.67 -24.61 L 271.3 -24.61 L 271.3 -20.96 Q 271.3 -19.46 271.81 -18.03 Q 272.32 -16.61 273.23 -15.38 Q 274.14 -14.14 275.42 -13.18 Q 276.7 -12.22 278.24 -11.65 L 278.24 -11.65 Z M 269.28 -0.42 L 285.79 -0.42 L 285.79 1.73 L 266.66 1.73 L 266.66 -7.23 L 269.28 -7.23 L 269.28 -0.42 Z M 321.76 -16.48 L 321.76 -9.54 L 319.26 -9.54 L 319.26 -25.76 L 321.76 -25.76 L 321.76 -18.62 L 325.41 -18.62 L 325.41 -26.3 L 327.94 -26.3 L 327.94 -8.61 L 325.41 -8.61 L 325.41 -16.48 L 321.76 -16.48 Z M 318.08 -12.86 L 316.67 -10.85 Q 314.66 -11.68 313.22 -13.14 Q 311.78 -14.59 311.01 -16.42 L 311.01 -16.42 Q 310.24 -14.4 308.75 -12.69 Q 307.26 -10.98 305.15 -10.05 L 305.15 -10.05 L 303.74 -12.1 Q 305.15 -12.74 306.26 -13.7 Q 307.36 -14.66 308.13 -15.81 Q 308.9 -16.96 309.31 -18.22 Q 309.73 -19.49 309.73 -20.67 L 309.73 -20.67 L 309.73 -24.54 L 312.26 -24.54 L 312.26 -20.67 Q 312.26 -19.49 312.66 -18.32 Q 313.06 -17.15 313.79 -16.11 Q 314.53 -15.07 315.62 -14.24 Q 316.7 -13.41 318.08 -12.86 L 318.08 -12.86 Z M 318.46 -7.97 L 318.46 -7.97 Q 320.67 -7.97 322.45 -7.62 Q 324.22 -7.26 325.47 -6.61 Q 326.72 -5.95 327.39 -4.99 Q 328.06 -4.03 328.06 -2.82 L 328.06 -2.82 Q 328.06 -1.6 327.39 -0.64 Q 326.72 0.32 325.47 0.98 Q 324.22 1.63 322.45 1.98 Q 320.67 2.34 318.46 2.34 L 318.46 2.34 Q 316.26 2.34 314.48 1.98 Q 312.7 1.63 311.47 0.98 Q 310.24 0.32 309.57 -0.64 Q 308.9 -1.6 308.9 -2.82 L 308.9 -2.82 Q 308.9 -4.03 309.57 -4.99 Q 310.24 -5.95 311.47 -6.61 Q 312.7 -7.26 314.48 -7.62 Q 316.26 -7.97 318.46 -7.97 Z M 318.46 0.32 L 318.46 0.32 Q 321.76 0.32 323.62 -0.5 Q 325.47 -1.31 325.47 -2.82 L 325.47 -2.82 Q 325.47 -4.32 323.62 -5.12 Q 321.76 -5.92 318.46 -5.92 L 318.46 -5.92 Q 315.23 -5.92 313.36 -5.12 Q 311.49 -4.32 311.49 -2.82 L 311.49 -2.82 Q 311.49 -1.31 313.36 -0.5 Q 315.23 0.32 318.46 0.32 Z M 366.85 -26.37 L 369.47 -26.37 L 369.47 -10.08 L 366.85 -10.08 L 366.85 -26.37 Z M 363.74 -15.74 L 364.1 -13.57 Q 360.51 -12.86 357.14 -12.56 Q 353.76 -12.26 350.05 -12.26 L 350.05 -12.26 L 347.71 -12.26 L 347.71 -24.67 L 350.34 -24.67 L 350.34 -14.46 Q 353.89 -14.46 357.12 -14.75 Q 360.35 -15.04 363.74 -15.74 L 363.74 -15.74 Z M 350.91 1.95 L 350.91 -8.7 L 369.47 -8.7 L 369.47 1.95 L 350.91 1.95 Z M 353.47 -6.62 L 353.47 -0.16 L 366.91 -0.16 L 366.91 -6.62 L 353.47 -6.62 Z" stroke-linecap="round" />
</g>
</g>
</g>
</svg>